<svg width="55" height="60" viewBox="0 0 55 60" fill="none" xmlns="http://www.w3.org/2000/svg">
<path d="M41.9512 19.9807C39.1278 16.474 37.3536 12.0424 37.3536 12.0424C37.3536 12.0424 35.8465 13.1406 27.2807 14.7784C18.7341 16.4354 4.9793 20.0385 2.27031 31.1946C-0.438669 42.3506 11.4847 53.237 29.3411 54.7591C47.2166 56.2813 53.0924 47.0905 53.0542 40.2119C53.0161 31.079 44.7747 23.4874 41.9512 19.9807ZM45.9956 34.894C45.1753 34.894 44.5076 34.2582 44.5076 33.4874C44.5076 32.7167 45.1753 32.0809 45.9956 32.0809C46.8159 32.0809 47.4836 32.7167 47.4836 33.4874C47.4836 34.2774 46.8159 34.894 45.9956 34.894Z" fill="white"/>
<path d="M13.2397 44.1811C11.6182 44.1811 10.4544 43.8536 9.78673 43.1985C9.11903 42.5433 8.77563 41.58 8.77563 40.3275C8.77563 39.9807 8.79471 39.4027 8.83287 38.5742C8.87102 37.7457 8.94733 36.7823 9.02364 35.6455C9.11903 34.5279 9.19534 33.2948 9.3098 31.946C9.40519 30.6166 9.51965 29.2486 9.63412 27.8613C9.86304 24.9518 10.0347 22.5819 10.1301 20.7707C10.2255 18.9595 10.3018 17.5337 10.3591 16.4933C10.4354 15.2023 10.5308 14.3545 10.6071 14.0077C10.7024 13.6416 10.8741 13.4682 11.1603 13.4682C12.0379 13.4682 12.9536 13.4489 13.8884 13.4104C14.8232 13.3719 15.7007 13.3141 16.5592 13.2563C17.4177 13.1985 18.2189 13.1407 18.982 13.1021C19.7451 13.0636 20.4128 13.0443 21.0233 13.0443C22.8547 13.0443 24.4191 13.2755 25.7354 13.738C27.0517 14.2004 28.1201 14.8555 28.9213 15.684C29.7416 16.5125 30.333 17.5337 30.7146 18.7091C31.0961 19.8844 31.2869 21.2139 31.2869 22.6975C31.2869 24.9518 30.8481 26.9557 29.9706 28.7091C29.0739 30.4624 27.6622 31.8112 25.7354 32.736L29.341 37.9191C29.9896 38.9017 30.5047 39.6532 30.8481 40.1927C31.1915 40.7322 31.3632 41.1175 31.3632 41.3873C31.3632 41.58 31.2488 41.869 31.0007 42.2351C30.7527 42.6012 30.4093 42.948 29.9324 43.3141C29.4555 43.6802 28.8832 43.9884 28.2155 44.2389C27.5477 44.4894 26.7847 44.6243 25.9643 44.6243C25.0486 44.6243 24.2664 44.316 23.5797 43.7187C22.912 43.1214 22.3015 42.3121 21.7864 41.3102C21.2522 40.3083 20.7944 39.1715 20.4128 37.8613C20.0313 36.5703 19.6688 35.2023 19.3254 33.7958C18.2952 33.738 17.4558 33.6416 16.7881 33.4875C16.7118 34.7591 16.6164 35.973 16.5401 37.1291C16.4638 38.2852 16.3875 39.3064 16.3303 40.2312C16.273 41.1368 16.2158 41.8882 16.1586 42.4855C16.1013 43.0828 16.0823 43.4297 16.0823 43.5453C16.0632 43.7765 16.006 43.9499 15.9106 44.0462C15.8343 44.1426 15.6626 44.2004 15.3955 44.2004L13.2397 44.1811ZM20.1839 19.5183C19.8405 19.5183 19.459 19.5376 19.0202 19.5761C18.5814 19.6146 18.1426 19.6724 17.6466 19.7302C17.5894 20.7322 17.5321 21.946 17.4558 23.3333C17.3795 24.7399 17.2841 26.2235 17.1887 27.8035C18.1808 28.0347 19.0583 28.1503 19.8023 28.1503C20.699 28.1503 21.4048 27.9769 21.9581 27.6301C22.5113 27.2832 22.9501 26.8593 23.2553 26.3584C23.5797 25.8574 23.7704 25.3179 23.8849 24.7399C23.9803 24.1618 24.0375 23.6416 24.0375 23.1792C24.0375 22.0038 23.7514 21.079 23.179 20.4432C22.6067 19.8459 21.6147 19.5183 20.1839 19.5183Z" fill="#753535"/>
<path d="M39.8716 8.45859C41.6627 8.45859 43.1147 7.25088 43.1147 5.76109C43.1147 4.27131 41.6627 3.0636 39.8716 3.0636C38.0804 3.0636 36.6284 4.27131 36.6284 5.76109C36.6284 7.25088 38.0804 8.45859 39.8716 8.45859Z" fill="white"/>
<path d="M49.4295 32.9287C49.048 31.7149 48.4375 30.6937 47.6362 29.8459C46.8159 28.9981 45.7476 28.343 44.4503 27.8998C43.134 27.4567 41.5696 27.2255 39.7382 27.2255C39.1087 27.2255 38.3837 27.2447 37.5443 27.2833C36.7049 27.3218 35.8655 27.3796 34.9689 27.4374C34.3202 27.4759 33.6716 27.5145 33.023 27.553C32.7941 28.343 32.5651 29.133 32.2027 29.8459C31.4968 31.2717 30.5048 32.4663 29.2838 33.4682L32.9276 38.8247C33.5762 39.8074 33.8433 40.5973 33.8433 41.3873C33.8433 42.3507 33.3854 43.1407 33.0421 43.6416C32.6414 44.239 32.1073 44.7785 31.4205 45.2987C30.7719 45.7996 30.0088 46.2235 29.093 46.5704C28.7306 46.7052 28.3109 46.686 27.9293 46.7823C27.853 47.842 27.7767 48.8825 27.7004 49.8074C27.6241 50.9249 27.5478 51.9075 27.5096 52.7361C27.4715 53.5646 27.4524 54.1619 27.4524 54.528C27.4524 55.7996 27.7958 56.763 28.4635 57.3989C29.1312 58.054 30.2949 58.3815 31.9165 58.3815H33.8815C34.1485 58.3815 34.3202 58.3237 34.3965 58.2274C34.4729 58.1311 34.5301 57.9576 34.5682 57.7264L35.1596 49.7688C36.0181 50.0193 37.0674 50.1542 38.2883 50.1542C40.3487 50.1542 42.1229 49.7881 43.6109 49.0752C45.0989 48.3623 46.3008 47.3796 47.2547 46.185C48.1895 44.9711 48.8953 43.5838 49.3341 42.0039C49.7729 40.4239 50.0018 38.7862 50.0018 37.0906C50.0018 35.5299 49.811 34.1426 49.4295 32.9287ZM42.5426 39.4605C42.4281 40.212 42.1992 40.9442 41.8558 41.6185C41.5124 42.3122 41.0355 42.8902 40.425 43.3719C39.8145 43.8536 39.0133 44.0848 38.0022 44.0848C37.6588 44.0848 37.2772 44.0655 36.8575 44.027C36.4378 43.9885 36.0181 43.9114 35.5984 43.7958C35.732 41.8883 35.8655 40.0771 35.9418 38.343C36.0181 36.6089 36.0944 35.1445 36.1517 33.9307C36.6668 33.8729 37.1437 33.8151 37.6015 33.7765C38.0594 33.738 38.4791 33.7187 38.8416 33.7187C40.3105 33.7187 41.3025 34.0463 41.8558 34.6821C42.409 35.3372 42.6952 36.2813 42.6952 37.5145C42.7334 38.054 42.657 38.7091 42.5426 39.4605ZM45.9956 34.8941C45.1753 34.8941 44.5075 34.2582 44.5075 33.4875C44.5075 32.7168 45.1753 32.081 45.9956 32.081C46.8159 32.081 47.4836 32.7168 47.4836 33.4875C47.4836 34.2775 46.8159 34.8941 45.9956 34.8941Z" fill="#753535"/>
</svg>
