<svg width="32" height="34" viewBox="0 0 32 34" fill="none" xmlns="http://www.w3.org/2000/svg">
<path d="M14.9078 15.3578C13.3404 13.8006 10.8045 13.8057 9.24077 15.3687C7.67414 16.9375 7.67414 19.4793 9.24077 21.0474C9.31808 21.124 13.0385 24.8283 14.4089 26.1914C14.6853 26.4664 15.1317 26.4664 15.4081 26.1914C16.7785 24.8283 20.4989 21.1254 20.5762 21.0474C22.1443 19.48 22.1443 16.9375 20.5762 15.3687C19.0118 13.8057 16.478 13.8006 14.9078 15.3578Z" fill="#3A3A3A" fill-opacity="0.4"/>
<path d="M28.3073 12.4922C28.0826 12.6249 27.8471 12.7387 27.5932 12.8109C27.3256 12.8868 27.0484 12.924 26.7705 12.924C26.5561 12.924 26.3461 12.8941 26.1397 12.8503L28.6296 23.9575C28.7821 24.6343 28.661 25.3308 28.289 25.9165C27.9163 26.5036 27.3394 26.9106 26.6626 27.0615L8.66607 31.097C7.99653 31.2472 7.28542 31.1225 6.70705 30.7557C6.12066 30.383 5.71369 29.8061 5.56272 29.13L2.25733 14.3856C1.94372 12.9874 2.82622 11.5951 4.22437 11.2815L19.4188 7.87472C19.3794 7.74489 19.3451 7.61361 19.3254 7.47795C19.2255 6.81571 19.3539 6.14763 19.6704 5.56999L3.74446 9.14085C1.16624 9.71849 -0.461655 12.2865 0.116713 14.8655L3.42209 29.6091C3.70216 30.8592 4.45193 31.9233 5.53281 32.6082C6.30154 33.0961 7.18915 33.3528 8.1001 33.3528C8.45091 33.3528 8.80392 33.3135 9.14744 33.2376L27.144 29.2022C28.3933 28.9214 29.4582 28.1723 30.1438 27.0907C30.8279 26.0106 31.0518 24.7262 30.771 23.4768L28.3073 12.4922Z" fill="#3A3A3A" fill-opacity="0.4"/>
<path d="M29.2554 1.15236C28.0739 0.390928 26.8274 0 25.818 0C24.9939 0 24.3272 0.261105 23.9837 0.793525C23.5585 1.45504 23.7182 2.39516 24.3163 3.33674L21.679 6.48823C21.5251 6.67276 21.4573 6.91417 21.493 7.15267C21.5302 7.38897 21.6659 7.60048 21.8679 7.73031L22.897 8.39328L21.2997 11.9678C21.1546 12.2938 21.2268 12.6891 21.5098 12.9385C21.6695 13.08 21.8664 13.1493 22.0648 13.1493C22.296 13.1493 22.5287 13.053 22.6942 12.8656L25.2885 9.93219L26.3176 10.5966C26.454 10.6841 26.6108 10.7294 26.7713 10.7294C26.8471 10.7294 26.9237 10.7192 26.9988 10.698C27.23 10.6331 27.4211 10.4704 27.5276 10.2553L29.3057 6.55169C29.5202 6.58159 29.7273 6.59691 29.9271 6.59691C30.7513 6.59691 31.4172 6.33653 31.7607 5.80338C32.5236 4.6182 31.4019 2.53593 29.2554 1.15236Z" fill="#3A3A3A" fill-opacity="0.4"/>
</svg>
