<svg width="165" height="52" viewBox="0 0 165 52" fill="none" xmlns="http://www.w3.org/2000/svg">
<path d="M38.3671 15.9025C35.6633 12.6061 33.9642 8.44026 33.9642 8.44026C33.9642 8.44026 32.521 9.47265 24.3181 11.0122C16.1335 12.5698 2.96134 15.9568 0.367113 26.4437C-2.22712 36.9307 9.19116 47.1641 26.2912 48.5949C43.4094 50.0258 49.0364 41.3863 48.9998 34.9202C48.9633 26.3351 41.071 19.1989 38.3671 15.9025ZM42.2402 29.9213C41.4546 29.9213 40.8152 29.3236 40.8152 28.5991C40.8152 27.8746 41.4546 27.2769 42.2402 27.2769C43.0258 27.2769 43.6652 27.8746 43.6652 28.5991C43.6652 29.3417 43.0258 29.9213 42.2402 29.9213Z" fill="#FFB3B3"/>
<path d="M10.8719 38.6513C9.31904 38.6513 8.20462 38.3434 7.56519 37.7276C6.92577 37.1118 6.59692 36.2062 6.59692 35.0289C6.59692 34.7029 6.61519 34.1595 6.65173 33.3807C6.68827 32.6019 6.76135 31.6963 6.83442 30.6277C6.92577 29.5772 6.99885 28.418 7.10846 27.1501C7.19981 25.9004 7.30942 24.6144 7.41904 23.3103C7.63827 20.5754 7.80269 18.3476 7.89404 16.6451C7.98539 14.9425 8.05846 13.6022 8.11327 12.6242C8.18635 11.4107 8.27769 10.6137 8.35077 10.2877C8.44212 9.94357 8.60654 9.78056 8.88058 9.78056C9.72096 9.78056 10.5979 9.76245 11.4931 9.72623C12.3883 9.69 13.2287 9.63567 14.0508 9.58133C14.8729 9.52699 15.6402 9.47266 16.371 9.43643C17.1017 9.40021 17.7412 9.3821 18.3258 9.3821C20.0796 9.3821 21.5777 9.59944 22.8383 10.0341C24.0989 10.4688 25.1219 11.0846 25.8892 11.8635C26.6748 12.6423 27.2412 13.6022 27.6065 14.7071C27.9719 15.8119 28.1546 17.0617 28.1546 18.4563C28.1546 20.5754 27.7344 22.4591 26.894 24.1073C26.0354 25.7555 24.6835 27.0233 22.8383 27.8927L26.2912 32.7649C26.9123 33.6886 27.4056 34.395 27.7344 34.9021C28.0633 35.4093 28.2277 35.7715 28.2277 36.0251C28.2277 36.2062 28.1181 36.4779 27.8806 36.822C27.6431 37.1661 27.3142 37.4922 26.8575 37.8363C26.4008 38.1804 25.8527 38.4702 25.2133 38.7057C24.5739 38.9411 23.8431 39.0679 23.0575 39.0679C22.1806 39.0679 21.4315 38.7781 20.7739 38.2167C20.1344 37.6552 19.5498 36.8945 19.0565 35.9526C18.545 35.0108 18.1065 33.9422 17.7412 32.7106C17.3758 31.497 17.0287 30.2111 16.6998 28.8889C15.7133 28.8346 14.9094 28.744 14.27 28.5991C14.1969 29.7945 14.1056 30.9356 14.0325 32.0223C13.9594 33.109 13.8863 34.069 13.8315 34.9384C13.7767 35.7896 13.7219 36.496 13.6671 37.0575C13.6123 37.6189 13.594 37.945 13.594 38.0536C13.5758 38.271 13.521 38.434 13.4296 38.5246C13.3565 38.6151 13.1921 38.6695 12.9363 38.6695L10.8719 38.6513ZM17.5219 15.4678C17.1931 15.4678 16.8277 15.4859 16.4075 15.5221C15.9873 15.5583 15.5671 15.6127 15.0921 15.667C15.0373 16.6088 14.9825 17.7499 14.9094 19.054C14.8364 20.3762 14.745 21.7708 14.6537 23.256C15.6037 23.4734 16.444 23.582 17.1565 23.582C18.0152 23.582 18.6912 23.419 19.221 23.093C19.7508 22.767 20.171 22.3685 20.4633 21.8976C20.7739 21.4267 20.9565 20.9195 21.0662 20.3762C21.1575 19.8328 21.2123 19.3438 21.2123 18.9091C21.2123 17.8042 20.9383 16.9349 20.3902 16.3372C19.8421 15.7757 18.8921 15.4678 17.5219 15.4678Z" fill="#753535"/>
<path d="M36.3758 5.0714C38.0911 5.0714 39.4816 3.93613 39.4816 2.5357C39.4816 1.13527 38.0911 0 36.3758 0C34.6605 0 33.27 1.13527 33.27 2.5357C33.27 3.93613 34.6605 5.0714 36.3758 5.0714Z" fill="#FFB3B3"/>
<path d="M45.5287 28.0738C45.1633 26.9328 44.5787 25.9728 43.8114 25.1759C43.0258 24.379 42.0027 23.7632 40.7604 23.3466C39.4999 22.93 38.0018 22.7126 36.2479 22.7126C35.6451 22.7126 34.9508 22.7308 34.147 22.767C33.3431 22.8032 32.5393 22.8575 31.6806 22.9119C31.0595 22.9481 30.4383 22.9843 29.8172 23.0206C29.5979 23.7632 29.3787 24.5057 29.0316 25.1759C28.3556 26.5162 27.4056 27.6392 26.2364 28.581L29.7258 33.6162C30.347 34.5399 30.6027 35.2825 30.6027 36.0251C30.6027 36.9307 30.1643 37.6733 29.8354 38.1442C29.4518 38.7057 28.9402 39.2128 28.2825 39.7018C27.6614 40.1728 26.9306 40.5712 26.0537 40.8972C25.7066 41.024 25.3047 41.0059 24.9393 41.0965C24.8662 42.0927 24.7931 43.0707 24.72 43.9401C24.647 44.9906 24.5739 45.9143 24.5374 46.6931C24.5008 47.472 24.4825 48.0334 24.4825 48.3776C24.4825 49.573 24.8114 50.4786 25.4508 51.0763C26.0902 51.6921 27.2047 52 28.7575 52H30.6393C30.895 52 31.0595 51.9457 31.1325 51.8551C31.2056 51.7645 31.2604 51.6015 31.297 51.3842L31.8633 43.9039C32.6854 44.1393 33.6902 44.2661 34.8595 44.2661C36.8325 44.2661 38.5316 43.922 39.9566 43.2518C41.3816 42.5817 42.5326 41.658 43.446 40.535C44.3412 39.3939 45.0172 38.0899 45.4374 36.6047C45.8576 35.1195 46.0768 33.5799 46.0768 31.9861C46.0768 30.519 45.8941 29.2149 45.5287 28.0738ZM38.9335 34.2139C38.8239 34.9202 38.6047 35.6085 38.2758 36.2424C37.947 36.8945 37.4902 37.4378 36.9056 37.8906C36.321 38.3434 35.5537 38.5608 34.5854 38.5608C34.2566 38.5608 33.8912 38.5427 33.4893 38.5064C33.0874 38.4702 32.6854 38.3978 32.2835 38.2891C32.4114 36.496 32.5393 34.7935 32.6124 33.1634C32.6854 31.5333 32.7585 30.1567 32.8133 29.0157C33.3066 28.9613 33.7633 28.907 34.2018 28.8708C34.6402 28.8346 35.0422 28.8164 35.3893 28.8164C36.796 28.8164 37.746 29.1243 38.2758 29.722C38.8056 30.3379 39.0797 31.2254 39.0797 32.3845C39.1162 32.8917 39.0431 33.5075 38.9335 34.2139ZM42.2402 29.9213C41.4547 29.9213 40.8152 29.3236 40.8152 28.5991C40.8152 27.8746 41.4547 27.2769 42.2402 27.2769C43.0258 27.2769 43.6652 27.8746 43.6652 28.5991C43.6652 29.3417 43.0258 29.9213 42.2402 29.9213Z" fill="#753535"/>
<path d="M65.4932 17.0049C65.6722 16.6305 65.9408 16.362 66.2988 16.1992C66.5104 16.1016 66.722 16.0527 66.9336 16.0527C67.0964 16.0527 67.2591 16.0771 67.4219 16.126L68.0566 16.3213C68.431 16.4515 68.6995 16.6875 68.8623 17.0293C68.9437 17.2083 68.9844 17.3874 68.9844 17.5664C68.9844 17.7454 68.9437 17.9245 68.8623 18.1035C68.3577 19.2103 67.8369 20.2682 67.2998 21.2773C67.2347 21.375 67.2021 21.4889 67.2021 21.6191V37.8545C67.2021 38.2614 67.0557 38.6032 66.7627 38.8799C66.486 39.1566 66.1523 39.2949 65.7617 39.2949H65.2002C64.7933 39.2949 64.4515 39.1566 64.1748 38.8799C63.8981 38.6032 63.7598 38.2614 63.7598 37.8545V26.8193C63.7598 26.7868 63.7435 26.7624 63.7109 26.7461C63.6784 26.7298 63.654 26.738 63.6377 26.7705C63.4424 26.9984 63.2389 27.2344 63.0273 27.4785C62.8483 27.6738 62.6367 27.7715 62.3926 27.7715C62.3275 27.7715 62.2624 27.7633 62.1973 27.7471C61.8717 27.682 61.6357 27.4948 61.4893 27.1855C61.3102 26.7786 61.1149 26.388 60.9033 26.0137C60.7568 25.7207 60.6836 25.4115 60.6836 25.0859C60.6836 24.9883 60.6917 24.8988 60.708 24.8174C60.7568 24.3942 60.9196 24.028 61.1963 23.7188C62.9215 21.7982 64.3538 19.5602 65.4932 17.0049ZM79.8486 23.4746C79.8486 23.0677 79.987 22.7259 80.2637 22.4492C80.5566 22.1725 80.8984 22.0342 81.2891 22.0342H81.9238C82.3307 22.0342 82.6725 22.1725 82.9492 22.4492C83.2259 22.7259 83.3643 23.0677 83.3643 23.4746V37C83.3643 37.4069 83.2259 37.7487 82.9492 38.0254C82.6725 38.3021 82.3307 38.4404 81.9238 38.4404H81.2891C80.8984 38.4404 80.5566 38.3021 80.2637 38.0254C79.987 37.7487 79.8486 37.4069 79.8486 37V36.8779C79.8486 36.764 79.7917 36.707 79.6777 36.707H72.3291C72.2152 36.707 72.1582 36.764 72.1582 36.8779V37C72.1582 37.4069 72.0117 37.7487 71.7188 38.0254C71.4421 38.3021 71.1084 38.4404 70.7178 38.4404H70.1807C69.79 38.4404 69.4482 38.3021 69.1553 38.0254C68.8786 37.7487 68.7402 37.4069 68.7402 37V23.4746C68.7402 23.0677 68.8786 22.7259 69.1553 22.4492C69.4482 22.1725 69.79 22.0342 70.1807 22.0342H70.7178C71.1084 22.0342 71.4421 22.1725 71.7188 22.4492C72.0117 22.7259 72.1582 23.0677 72.1582 23.4746V33.1426C72.1582 33.2565 72.2152 33.3135 72.3291 33.3135H73.9648C74.0951 33.3135 74.1602 33.2565 74.1602 33.1426V17.9082C74.1602 17.5176 74.2985 17.1839 74.5752 16.9072C74.8519 16.6143 75.1937 16.4678 75.6006 16.4678H76.3086C76.6992 16.4678 77.0329 16.6143 77.3096 16.9072C77.6025 17.1839 77.749 17.5176 77.749 17.9082V33.1426C77.749 33.2565 77.8141 33.3135 77.9443 33.3135H79.6777C79.7917 33.3135 79.8486 33.2565 79.8486 33.1426V23.4746ZM102.944 19.959C102.961 19.9102 102.952 19.8695 102.92 19.8369C102.904 19.7881 102.871 19.7637 102.822 19.7637H99.917C99.8682 19.7637 99.8275 19.7881 99.7949 19.8369C99.7786 19.8695 99.7786 19.902 99.7949 19.9346C99.9414 20.2926 100.063 20.6263 100.161 20.9355C100.194 21.0658 100.267 21.1309 100.381 21.1309H102.334C102.464 21.1309 102.554 21.0739 102.603 20.96C102.765 20.5042 102.879 20.1706 102.944 19.959ZM107.778 21.1309C108.185 21.1309 108.527 21.2692 108.804 21.5459C109.08 21.8226 109.219 22.1644 109.219 22.5713V22.6201C109.219 23.0107 109.08 23.3525 108.804 23.6455C108.527 23.9222 108.185 24.0605 107.778 24.0605H95.3516C94.9447 24.0605 94.6029 23.9222 94.3262 23.6455C94.0495 23.3525 93.9111 23.0107 93.9111 22.6201V22.5713C93.9111 22.1644 94.0495 21.8226 94.3262 21.5459C94.6029 21.2692 94.9447 21.1309 95.3516 21.1309H96.5967C96.6943 21.1309 96.735 21.082 96.7188 20.9844C96.6374 20.724 96.556 20.4961 96.4746 20.3008C96.4258 20.1868 96.4258 20.0811 96.4746 19.9834C96.5397 19.8695 96.6292 19.8044 96.7432 19.7881V19.7637H95.6934C95.3027 19.7637 94.9691 19.6335 94.6924 19.373C94.432 19.0964 94.3018 18.7708 94.3018 18.3965C94.3018 18.0059 94.432 17.6803 94.6924 17.4199C94.9691 17.1432 95.3027 17.0049 95.6934 17.0049H99.3555C99.4531 17.0049 99.502 16.9561 99.502 16.8584C99.502 16.5492 99.6077 16.2887 99.8193 16.0771C100.047 15.8493 100.316 15.7354 100.625 15.7354H101.943C102.253 15.7354 102.513 15.8493 102.725 16.0771C102.952 16.2887 103.066 16.5492 103.066 16.8584C103.066 16.9561 103.115 17.0049 103.213 17.0049H107.437C107.827 17.0049 108.153 17.1432 108.413 17.4199C108.69 17.6803 108.828 18.0059 108.828 18.3965C108.828 18.7708 108.69 19.0964 108.413 19.373C108.153 19.6335 107.827 19.7637 107.437 19.7637H106.875C106.761 19.7637 106.672 19.8206 106.606 19.9346C106.558 20.0485 106.468 20.2275 106.338 20.4717C106.224 20.6995 106.143 20.8623 106.094 20.96C106.061 20.9925 106.053 21.0332 106.069 21.082C106.102 21.1146 106.143 21.1309 106.191 21.1309H107.778ZM92.2998 29.4805C92.4626 29.4154 92.6172 29.3828 92.7637 29.3828C92.959 29.3828 93.1462 29.4235 93.3252 29.5049C93.667 29.6839 93.8786 29.9606 93.96 30.335L94.082 30.75C94.1146 30.8965 94.1309 31.043 94.1309 31.1895C94.1309 31.4336 94.0739 31.6777 93.96 31.9219C93.7809 32.3125 93.5042 32.5973 93.1299 32.7764C91.9743 33.3135 90.2409 34.1029 87.9297 35.1445C87.7507 35.2096 87.5716 35.2422 87.3926 35.2422C87.2298 35.2422 87.0589 35.2096 86.8799 35.1445C86.5218 34.9818 86.2858 34.7214 86.1719 34.3633L85.8545 33.46C85.8057 33.2972 85.7812 33.1426 85.7812 32.9961C85.7812 32.7845 85.8301 32.5729 85.9277 32.3613C86.1068 32.0033 86.3835 31.7591 86.7578 31.6289C87.181 31.4661 87.6204 31.3034 88.0762 31.1406C88.1901 31.0918 88.2471 31.0104 88.2471 30.8965V25.0859C88.2471 24.9557 88.1901 24.8906 88.0762 24.8906H87.4414C87.0508 24.8906 86.709 24.7523 86.416 24.4756C86.1393 24.1989 86.001 23.8571 86.001 23.4502V22.9375C86.001 22.5469 86.1393 22.2132 86.416 21.9365C86.709 21.6436 87.0508 21.4971 87.4414 21.4971H88.0762C88.1901 21.4971 88.2471 21.4401 88.2471 21.3262V17.4688C88.2471 17.0618 88.3854 16.7201 88.6621 16.4434C88.9551 16.1667 89.2969 16.0283 89.6875 16.0283H90.1758C90.5827 16.0283 90.9245 16.1667 91.2012 16.4434C91.4779 16.7201 91.6162 17.0618 91.6162 17.4688V21.3262C91.6162 21.4401 91.6813 21.4971 91.8115 21.4971H92.2266C92.6335 21.4971 92.9753 21.6436 93.252 21.9365C93.5286 22.2132 93.667 22.5469 93.667 22.9375V23.4502C93.667 23.8571 93.5286 24.1989 93.252 24.4756C92.9753 24.7523 92.6335 24.8906 92.2266 24.8906H91.8115C91.6813 24.8906 91.6162 24.9557 91.6162 25.0859V29.5781C91.6162 29.6107 91.6325 29.6432 91.665 29.6758C91.7139 29.6921 91.7546 29.6921 91.7871 29.6758L92.2998 29.4805ZM98.6475 29.9199C98.5335 29.9199 98.4766 29.985 98.4766 30.1152V30.6768C98.4766 30.7907 98.5335 30.8477 98.6475 30.8477H104.458C104.588 30.8477 104.653 30.7907 104.653 30.6768V30.1152C104.653 29.985 104.588 29.9199 104.458 29.9199H98.6475ZM98.6475 26.9902C98.5335 26.9902 98.4766 27.0553 98.4766 27.1855V27.7227C98.4766 27.8366 98.5335 27.8936 98.6475 27.8936H104.458C104.588 27.8936 104.653 27.8366 104.653 27.7227V27.1855C104.653 27.0553 104.588 26.9902 104.458 26.9902H98.6475ZM105.728 36.2188H106.387C106.566 36.2188 106.688 36.0479 106.753 35.7061C106.818 35.3968 106.989 35.1608 107.266 34.998C107.428 34.9167 107.583 34.876 107.729 34.876C107.86 34.876 107.998 34.9085 108.145 34.9736C108.242 35.0062 108.356 35.0469 108.486 35.0957C108.877 35.2585 109.186 35.5107 109.414 35.8525C109.577 36.0967 109.658 36.349 109.658 36.6094C109.658 36.7233 109.642 36.8372 109.609 36.9512C109.398 37.8301 109.072 38.4323 108.633 38.7578C108.193 39.0996 107.575 39.2705 106.777 39.2705H105.093C103.807 39.2705 102.952 39.002 102.529 38.4648C102.106 37.9277 101.895 36.9512 101.895 35.5352V33.2158C101.895 33.0856 101.838 33.0205 101.724 33.0205H100.771C100.658 33.0205 100.592 33.0856 100.576 33.2158C100.299 34.6156 99.7624 35.7874 98.9648 36.7314C98.1673 37.6755 96.8896 38.4567 95.1318 39.0752C94.9691 39.1403 94.8063 39.1729 94.6436 39.1729C94.432 39.1729 94.2204 39.124 94.0088 39.0264C93.6344 38.8473 93.3333 38.5788 93.1055 38.2207C92.9753 37.9928 92.8369 37.7731 92.6904 37.5615C92.5765 37.3825 92.5195 37.2035 92.5195 37.0244C92.5195 36.9105 92.5358 36.7965 92.5684 36.6826C92.6823 36.3896 92.8939 36.1943 93.2031 36.0967C94.4076 35.7874 95.2783 35.4049 95.8154 34.9492C96.3688 34.4772 96.7513 33.8913 96.9629 33.1914C96.9792 33.1589 96.971 33.1263 96.9385 33.0938C96.9222 33.0449 96.8896 33.0205 96.8408 33.0205H96.5234C96.1165 33.0205 95.7747 32.8822 95.498 32.6055C95.2214 32.3288 95.083 31.987 95.083 31.5801V26.2578C95.083 25.8672 95.2214 25.5335 95.498 25.2568C95.7747 24.9639 96.1165 24.8174 96.5234 24.8174H106.753C107.16 24.8174 107.502 24.9639 107.778 25.2568C108.055 25.5335 108.193 25.8672 108.193 26.2578V31.5801C108.193 31.987 108.055 32.3288 107.778 32.6055C107.502 32.8822 107.16 33.0205 106.753 33.0205H105.532C105.418 33.0205 105.361 33.0856 105.361 33.2158V35.4863C105.361 35.8118 105.378 36.0153 105.41 36.0967C105.459 36.1781 105.565 36.2188 105.728 36.2188ZM117.397 17.3711C117.739 17.5501 117.951 17.8268 118.032 18.2012C118.049 18.3151 118.057 18.4128 118.057 18.4941C118.057 18.7708 117.975 19.0231 117.812 19.251L117.373 19.8613C117.129 20.1868 116.812 20.3822 116.421 20.4473C116.323 20.4635 116.226 20.4717 116.128 20.4717C115.835 20.4717 115.566 20.3984 115.322 20.252C114.801 19.9264 114.134 19.5358 113.32 19.0801C112.995 18.901 112.791 18.6243 112.71 18.25C112.694 18.1523 112.686 18.0628 112.686 17.9814C112.686 17.7048 112.775 17.4525 112.954 17.2246L113.223 16.8584C113.483 16.5329 113.817 16.3213 114.224 16.2236C114.354 16.1911 114.492 16.1748 114.639 16.1748C114.899 16.1748 115.151 16.2399 115.396 16.3701C116.193 16.7607 116.86 17.0944 117.397 17.3711ZM115.908 24.085C116.25 24.264 116.462 24.5407 116.543 24.915C116.576 25.029 116.592 25.1348 116.592 25.2324C116.592 25.4928 116.51 25.737 116.348 25.9648L115.908 26.624C115.68 26.9495 115.363 27.1449 114.956 27.21C114.858 27.2425 114.753 27.2588 114.639 27.2588C114.362 27.2588 114.102 27.1855 113.857 27.0391C113.32 26.7135 112.637 26.3311 111.807 25.8916C111.481 25.6963 111.278 25.4196 111.196 25.0615C111.164 24.9639 111.147 24.8662 111.147 24.7686C111.147 24.5081 111.237 24.264 111.416 24.0361L111.685 23.6455C111.945 23.32 112.279 23.1003 112.686 22.9863C112.832 22.9538 112.979 22.9375 113.125 22.9375C113.385 22.9375 113.63 22.9945 113.857 23.1084C114.622 23.4665 115.306 23.792 115.908 24.085ZM114.492 30.2617C114.639 29.9362 114.891 29.7246 115.249 29.627C115.347 29.5944 115.444 29.5781 115.542 29.5781C115.786 29.5781 116.014 29.6595 116.226 29.8223L116.787 30.2617C117.113 30.5059 117.332 30.8395 117.446 31.2627C117.495 31.4255 117.52 31.5801 117.52 31.7266C117.52 31.9707 117.471 32.2148 117.373 32.459C116.559 34.3307 115.729 36.1211 114.883 37.8301C114.704 38.1882 114.427 38.416 114.053 38.5137C113.939 38.5299 113.825 38.5381 113.711 38.5381C113.467 38.5381 113.239 38.4648 113.027 38.3184L112.173 37.7812C111.847 37.5534 111.636 37.2441 111.538 36.8535C111.506 36.7233 111.489 36.6012 111.489 36.4873C111.489 36.2269 111.562 35.9746 111.709 35.7305C112.669 34.0215 113.597 32.1986 114.492 30.2617ZM120.767 35.9746C120.75 36.0072 120.75 36.0397 120.767 36.0723C120.799 36.0885 120.832 36.0885 120.864 36.0723C122.183 35.5514 123.371 34.8923 124.429 34.0947C124.526 34.0133 124.535 33.9238 124.453 33.8262C123.558 32.6868 122.76 31.3685 122.061 29.8711C122.044 29.8385 122.02 29.8304 121.987 29.8467C121.971 29.8467 121.963 29.863 121.963 29.8955C121.735 32.2393 121.336 34.2656 120.767 35.9746ZM124.307 22.2539C124.307 22.14 124.242 22.083 124.111 22.083H122.354C122.24 22.083 122.183 22.14 122.183 22.2539V24.8418C122.183 24.972 122.24 25.0371 122.354 25.0371H124.111C124.242 25.0371 124.307 24.972 124.307 24.8418V22.2539ZM128.628 28.4062C128.644 28.3574 128.636 28.3167 128.604 28.2842C128.587 28.2516 128.555 28.2354 128.506 28.2354H125.039C124.99 28.2354 124.95 28.2516 124.917 28.2842C124.901 28.3167 124.901 28.3493 124.917 28.3818C125.438 29.4561 126.073 30.4489 126.821 31.3604C126.903 31.458 126.984 31.458 127.065 31.3604C127.716 30.4163 128.237 29.4316 128.628 28.4062ZM129.531 25.0371C130.508 25.0371 131.297 25.1592 131.899 25.4033C132.225 25.5335 132.469 25.7614 132.632 26.0869C132.729 26.2822 132.778 26.4857 132.778 26.6973C132.778 26.8275 132.762 26.9495 132.729 27.0635C132.03 29.6025 130.996 31.8242 129.629 33.7285C129.564 33.8262 129.58 33.9076 129.678 33.9727C130.703 34.7051 131.834 35.3073 133.071 35.7793C133.364 35.9095 133.551 36.1292 133.633 36.4385C133.665 36.5361 133.682 36.6257 133.682 36.707C133.682 36.9186 133.608 37.1221 133.462 37.3174C133.25 37.5778 133.039 37.8464 132.827 38.123C132.583 38.4811 132.274 38.7253 131.899 38.8555C131.72 38.9043 131.549 38.9287 131.387 38.9287C131.175 38.9287 130.964 38.888 130.752 38.8066C129.466 38.2207 128.286 37.4964 127.212 36.6338C127.114 36.5687 127.025 36.5768 126.943 36.6582C125.934 37.5208 124.852 38.237 123.696 38.8066C123.468 38.9206 123.241 38.9775 123.013 38.9775C122.866 38.9775 122.712 38.9531 122.549 38.9043C122.158 38.7741 121.841 38.5381 121.597 38.1963C121.255 37.7243 120.921 37.293 120.596 36.9023C120.563 36.8698 120.522 36.8617 120.474 36.8779C120.441 36.8779 120.417 36.9023 120.4 36.9512C120.238 37.3418 120.075 37.708 119.912 38.0498C119.733 38.3916 119.448 38.6032 119.058 38.6846C118.96 38.7008 118.862 38.709 118.765 38.709C118.488 38.709 118.228 38.6357 117.983 38.4893C117.788 38.359 117.593 38.237 117.397 38.123C117.072 37.944 116.852 37.6755 116.738 37.3174C116.706 37.1709 116.689 37.0326 116.689 36.9023C116.689 36.6745 116.738 36.4629 116.836 36.2676C117.243 35.4538 117.576 34.5667 117.837 33.6064C118.114 32.6462 118.309 31.6452 118.423 30.6035C118.537 29.5618 118.61 28.6504 118.643 27.8691C118.675 27.0716 118.691 26.1764 118.691 25.1836V20.1543C118.691 19.7637 118.83 19.43 119.106 19.1533C119.399 18.8604 119.741 18.7139 120.132 18.7139H124.111C124.242 18.7139 124.307 18.6569 124.307 18.543V17.0293C124.307 16.6387 124.445 16.305 124.722 16.0283C124.998 15.7354 125.34 15.5889 125.747 15.5889H126.431C126.838 15.5889 127.179 15.7354 127.456 16.0283C127.733 16.305 127.871 16.6387 127.871 17.0293V18.543C127.871 18.6569 127.936 18.7139 128.066 18.7139H131.143C131.175 18.7139 131.216 18.7139 131.265 18.7139C131.427 18.6813 131.598 18.665 131.777 18.665C131.94 18.665 132.111 18.6813 132.29 18.7139L133.12 18.9092C133.478 18.9906 133.755 19.1859 133.95 19.4951C134.08 19.7067 134.146 19.9183 134.146 20.1299C134.146 20.2601 134.121 20.3903 134.072 20.5205C133.763 21.5622 133.413 22.5387 133.022 23.4502C132.876 23.8408 132.616 24.1257 132.241 24.3047C131.997 24.4023 131.753 24.4512 131.509 24.4512C131.362 24.4512 131.216 24.4349 131.069 24.4023L130.679 24.3047C130.321 24.207 130.052 23.9873 129.873 23.6455C129.759 23.4339 129.702 23.2223 129.702 23.0107C129.702 22.8643 129.735 22.7178 129.8 22.5713C129.832 22.4574 129.865 22.3516 129.897 22.2539C129.914 22.2051 129.906 22.1644 129.873 22.1318C129.84 22.0993 129.808 22.083 129.775 22.083H128.066C127.936 22.083 127.871 22.14 127.871 22.2539V24.8418C127.871 24.972 127.936 25.0371 128.066 25.0371H129.531ZM142.397 17.3711C142.739 17.5501 142.951 17.8268 143.032 18.2012C143.049 18.3151 143.057 18.4128 143.057 18.4941C143.057 18.7708 142.975 19.0231 142.812 19.251L142.373 19.8613C142.129 20.1868 141.812 20.3822 141.421 20.4473C141.323 20.4635 141.226 20.4717 141.128 20.4717C140.835 20.4717 140.566 20.3984 140.322 20.252C139.801 19.9264 139.134 19.5358 138.32 19.0801C137.995 18.901 137.791 18.6243 137.71 18.25C137.694 18.1523 137.686 18.0628 137.686 17.9814C137.686 17.7048 137.775 17.4525 137.954 17.2246L138.223 16.8584C138.483 16.5329 138.817 16.3213 139.224 16.2236C139.354 16.1911 139.492 16.1748 139.639 16.1748C139.899 16.1748 140.151 16.2399 140.396 16.3701C141.193 16.7607 141.86 17.0944 142.397 17.3711ZM140.908 24.085C141.25 24.264 141.462 24.5407 141.543 24.915C141.576 25.029 141.592 25.1348 141.592 25.2324C141.592 25.4928 141.51 25.737 141.348 25.9648L140.908 26.624C140.68 26.9495 140.363 27.1449 139.956 27.21C139.858 27.2425 139.753 27.2588 139.639 27.2588C139.362 27.2588 139.102 27.1855 138.857 27.0391C138.32 26.7135 137.637 26.3311 136.807 25.8916C136.481 25.6963 136.278 25.4196 136.196 25.0615C136.164 24.9639 136.147 24.8662 136.147 24.7686C136.147 24.5081 136.237 24.264 136.416 24.0361L136.685 23.6455C136.945 23.32 137.279 23.1003 137.686 22.9863C137.832 22.9538 137.979 22.9375 138.125 22.9375C138.385 22.9375 138.63 22.9945 138.857 23.1084C139.622 23.4665 140.306 23.792 140.908 24.085ZM139.492 30.2617C139.639 29.9362 139.891 29.7246 140.249 29.627C140.347 29.5944 140.444 29.5781 140.542 29.5781C140.786 29.5781 141.014 29.6595 141.226 29.8223L141.787 30.2617C142.113 30.5059 142.332 30.8395 142.446 31.2627C142.495 31.4255 142.52 31.5801 142.52 31.7266C142.52 31.9707 142.471 32.2148 142.373 32.459C141.559 34.3307 140.729 36.1211 139.883 37.8301C139.704 38.1882 139.427 38.416 139.053 38.5137C138.939 38.5299 138.825 38.5381 138.711 38.5381C138.467 38.5381 138.239 38.4648 138.027 38.3184L137.173 37.7812C136.847 37.5534 136.636 37.2441 136.538 36.8535C136.506 36.7233 136.489 36.6012 136.489 36.4873C136.489 36.2269 136.562 35.9746 136.709 35.7305C137.669 34.0215 138.597 32.1986 139.492 30.2617ZM145.767 35.9746C145.75 36.0072 145.75 36.0397 145.767 36.0723C145.799 36.0885 145.832 36.0885 145.864 36.0723C147.183 35.5514 148.371 34.8923 149.429 34.0947C149.526 34.0133 149.535 33.9238 149.453 33.8262C148.558 32.6868 147.76 31.3685 147.061 29.8711C147.044 29.8385 147.02 29.8304 146.987 29.8467C146.971 29.8467 146.963 29.863 146.963 29.8955C146.735 32.2393 146.336 34.2656 145.767 35.9746ZM149.307 22.2539C149.307 22.14 149.242 22.083 149.111 22.083H147.354C147.24 22.083 147.183 22.14 147.183 22.2539V24.8418C147.183 24.972 147.24 25.0371 147.354 25.0371H149.111C149.242 25.0371 149.307 24.972 149.307 24.8418V22.2539ZM153.628 28.4062C153.644 28.3574 153.636 28.3167 153.604 28.2842C153.587 28.2516 153.555 28.2354 153.506 28.2354H150.039C149.99 28.2354 149.95 28.2516 149.917 28.2842C149.901 28.3167 149.901 28.3493 149.917 28.3818C150.438 29.4561 151.073 30.4489 151.821 31.3604C151.903 31.458 151.984 31.458 152.065 31.3604C152.716 30.4163 153.237 29.4316 153.628 28.4062ZM154.531 25.0371C155.508 25.0371 156.297 25.1592 156.899 25.4033C157.225 25.5335 157.469 25.7614 157.632 26.0869C157.729 26.2822 157.778 26.4857 157.778 26.6973C157.778 26.8275 157.762 26.9495 157.729 27.0635C157.03 29.6025 155.996 31.8242 154.629 33.7285C154.564 33.8262 154.58 33.9076 154.678 33.9727C155.703 34.7051 156.834 35.3073 158.071 35.7793C158.364 35.9095 158.551 36.1292 158.633 36.4385C158.665 36.5361 158.682 36.6257 158.682 36.707C158.682 36.9186 158.608 37.1221 158.462 37.3174C158.25 37.5778 158.039 37.8464 157.827 38.123C157.583 38.4811 157.274 38.7253 156.899 38.8555C156.72 38.9043 156.549 38.9287 156.387 38.9287C156.175 38.9287 155.964 38.888 155.752 38.8066C154.466 38.2207 153.286 37.4964 152.212 36.6338C152.114 36.5687 152.025 36.5768 151.943 36.6582C150.934 37.5208 149.852 38.237 148.696 38.8066C148.468 38.9206 148.241 38.9775 148.013 38.9775C147.866 38.9775 147.712 38.9531 147.549 38.9043C147.158 38.7741 146.841 38.5381 146.597 38.1963C146.255 37.7243 145.921 37.293 145.596 36.9023C145.563 36.8698 145.522 36.8617 145.474 36.8779C145.441 36.8779 145.417 36.9023 145.4 36.9512C145.238 37.3418 145.075 37.708 144.912 38.0498C144.733 38.3916 144.448 38.6032 144.058 38.6846C143.96 38.7008 143.862 38.709 143.765 38.709C143.488 38.709 143.228 38.6357 142.983 38.4893C142.788 38.359 142.593 38.237 142.397 38.123C142.072 37.944 141.852 37.6755 141.738 37.3174C141.706 37.1709 141.689 37.0326 141.689 36.9023C141.689 36.6745 141.738 36.4629 141.836 36.2676C142.243 35.4538 142.576 34.5667 142.837 33.6064C143.114 32.6462 143.309 31.6452 143.423 30.6035C143.537 29.5618 143.61 28.6504 143.643 27.8691C143.675 27.0716 143.691 26.1764 143.691 25.1836V20.1543C143.691 19.7637 143.83 19.43 144.106 19.1533C144.399 18.8604 144.741 18.7139 145.132 18.7139H149.111C149.242 18.7139 149.307 18.6569 149.307 18.543V17.0293C149.307 16.6387 149.445 16.305 149.722 16.0283C149.998 15.7354 150.34 15.5889 150.747 15.5889H151.431C151.838 15.5889 152.179 15.7354 152.456 16.0283C152.733 16.305 152.871 16.6387 152.871 17.0293V18.543C152.871 18.6569 152.936 18.7139 153.066 18.7139H156.143C156.175 18.7139 156.216 18.7139 156.265 18.7139C156.427 18.6813 156.598 18.665 156.777 18.665C156.94 18.665 157.111 18.6813 157.29 18.7139L158.12 18.9092C158.478 18.9906 158.755 19.1859 158.95 19.4951C159.08 19.7067 159.146 19.9183 159.146 20.1299C159.146 20.2601 159.121 20.3903 159.072 20.5205C158.763 21.5622 158.413 22.5387 158.022 23.4502C157.876 23.8408 157.616 24.1257 157.241 24.3047C156.997 24.4023 156.753 24.4512 156.509 24.4512C156.362 24.4512 156.216 24.4349 156.069 24.4023L155.679 24.3047C155.321 24.207 155.052 23.9873 154.873 23.6455C154.759 23.4339 154.702 23.2223 154.702 23.0107C154.702 22.8643 154.735 22.7178 154.8 22.5713C154.832 22.4574 154.865 22.3516 154.897 22.2539C154.914 22.2051 154.906 22.1644 154.873 22.1318C154.84 22.0993 154.808 22.083 154.775 22.083H153.066C152.936 22.083 152.871 22.14 152.871 22.2539V24.8418C152.871 24.972 152.936 25.0371 153.066 25.0371H154.531Z" fill="#753535"/>
</svg>
