<svg width="30" height="32" viewBox="0 0 30 32" fill="none" xmlns="http://www.w3.org/2000/svg">
<path d="M23.4901 9.78614C21.8347 7.75758 20.7944 5.19402 20.7944 5.19402C20.7944 5.19402 19.9108 5.82933 14.8886 6.77674C9.87763 7.73529 1.81307 9.81958 0.224763 16.2731C-1.36354 22.7266 5.62724 29.024 16.0966 29.9046C26.5772 30.7851 30.0223 25.4685 29.9999 21.4894C29.9775 16.2062 25.1455 11.8147 23.4901 9.78614Z" fill="#FFCBCB"/>
<path d="M22.2709 3.12086C23.321 3.12086 24.1724 2.42223 24.1724 1.56043C24.1724 0.698629 23.321 0 22.2709 0C21.2207 0 20.3694 0.698629 20.3694 1.56043C20.3694 2.42223 21.2207 3.12086 22.2709 3.12086Z" fill="#FFCBCB"/>
</svg>
