<?xml version="1.0" encoding="utf-8"?>
<!-- Generator: Adobe Illustrator 27.4.0, SVG Export Plug-In . SVG Version: 6.00 Build 0)  -->
<svg version="1.1" id="圖層_1" xmlns="http://www.w3.org/2000/svg" xmlns:xlink="http://www.w3.org/1999/xlink" x="0px" y="0px"
	 viewBox="0 0 800 800" style="enable-background:new 0 0 800 800;" xml:space="preserve">
<style type="text/css">
	.st0{fill-rule:evenodd;clip-rule:evenodd;fill:#FFFFFF;}
</style>
<g id="Page-1">
	<g id="Dribbble-Light-Preview" transform="translate(-99.000000, -320.000000)">
		<g id="icons" transform="translate(56.000000, 160.000000)">
			<path id="star_x5F_favorite-_x5B__x23_1499_x5D_" class="st0" d="M711.8,644c-17.1,16.5-24.8,40.3-20.8,63.6l25.8,149.2
				c8,46.4-29.2,84.2-71.4,84.2c-11.1,0-22.6-2.6-33.7-8.4l-135-70.4c-10.6-5.5-22.1-8.2-33.7-8.2s-23.1,2.7-33.7,8.2l-135,70.4
				c-11.1,5.8-22.6,8.4-33.7,8.4c-42.2,0-79.4-37.7-71.4-84.2L195,707.6c4-23.3-3.8-47.1-20.8-63.6L64.9,538.4
				c-43-41.6-19.2-114,40.1-122.6L256,394c23.6-3.4,44-18.1,54.5-39.3L378,219c13.3-26.7,39.1-40,64.9-40s51.7,13.3,65,40
				l67.5,135.7c10.5,21.2,30.9,35.9,54.5,39.3l151,21.8c59.4,8.6,83.1,81,40.1,122.6L711.8,644z"/>
		</g>
	</g>
</g>
</svg>
