<svg width="29" height="28" viewBox="0 0 29 28" fill="none" xmlns="http://www.w3.org/2000/svg">
<path fill-rule="evenodd" clip-rule="evenodd" d="M21.0909 12.6C21.0909 11.0536 22.2712 9.8 23.7273 9.8H26.3636V2.8H20.9023C20.4099 5.08074 18.983 7.04985 16.9613 8.12347L15.679 8.80439C14.9368 9.19853 14.0632 9.19853 13.321 8.80439L12.0387 8.12347C10.017 7.04985 8.59008 5.08074 8.09778 2.8H2.63636V9.8H5.27273C6.72875 9.8 7.90909 11.0536 7.90909 12.6V25.2H21.0909V12.6ZM14.5 6.3L13.2177 5.61907C11.58 4.74937 10.5455 2.97157 10.5455 1.02686C10.5455 0.459732 10.1126 0 9.57861 0H2.63636C1.18034 0 0 1.2536 0 2.8V11.2C0 11.9732 0.590176 12.6 1.31818 12.6H5.27273V25.2C5.27273 26.7464 6.45307 28 7.90909 28H21.0909C22.547 28 23.7273 26.7464 23.7273 25.2V12.6H27.6818C28.4099 12.6 29 11.9732 29 11.2V2.8C29 1.2536 27.8197 0 26.3636 0H19.4214C18.8874 0 18.4545 0.459732 18.4545 1.02686C18.4545 2.97157 17.42 4.74937 15.7823 5.61907L14.5 6.3Z" fill="#FF9393"/>
</svg>
